<svg xmlns="http://www.w3.org/2000/svg" width="1080" height="210"><text x="10" y="15" font-size="12">Mean harmful actions by architecture/profile</text><rect x="20" y="163" width="35" height="17" fill="#466"/><text x="20" y="195" font-size="7">A0</text><rect x="75" y="135" width="35" height="45" fill="#466"/><text x="75" y="195" font-size="7">A0</text><rect x="130" y="178" width="35" height="2" fill="#466"/><text x="130" y="195" font-size="7">A1</text><rect x="185" y="159" width="35" height="21" fill="#466"/><text x="185" y="195" font-size="7">A1</text><rect x="240" y="148" width="35" height="32" fill="#466"/><text x="240" y="195" font-size="7">A1</text><rect x="295" y="178" width="35" height="2" fill="#466"/><text x="295" y="195" font-size="7">A2</text><rect x="350" y="159" width="35" height="21" fill="#466"/><text x="350" y="195" font-size="7">A2</text><rect x="405" y="148" width="35" height="32" fill="#466"/><text x="405" y="195" font-size="7">A2</text><rect x="460" y="180" width="35" height="0" fill="#466"/><text x="460" y="195" font-size="7">A2</text><rect x="515" y="179" width="35" height="1" fill="#466"/><text x="515" y="195" font-size="7">A2</text><rect x="570" y="152" width="35" height="28" fill="#466"/><text x="570" y="195" font-size="7">A2</text><rect x="625" y="178" width="35" height="2" fill="#466"/><text x="625" y="195" font-size="7">A2</text><rect x="680" y="159" width="35" height="21" fill="#466"/><text x="680" y="195" font-size="7">A2</text><rect x="735" y="180" width="35" height="0" fill="#466"/><text x="735" y="195" font-size="7">A3</text><rect x="790" y="173" width="35" height="7" fill="#466"/><text x="790" y="195" font-size="7">A3</text><rect x="845" y="136" width="35" height="44" fill="#466"/><text x="845" y="195" font-size="7">A3</text><rect x="900" y="180" width="35" height="0" fill="#466"/><text x="900" y="195" font-size="7">A4</text><rect x="955" y="180" width="35" height="0" fill="#466"/><text x="955" y="195" font-size="7">A5</text></svg>
